<svg width="245" height="72" viewBox="0 0 245 72" fill="none" xmlns="http://www.w3.org/2000/svg">
<path d="M144.471 24.8064V11.6016H110.162V60.3967H124.899V24.8064H144.471Z" fill="#9191A4"/>
<path d="M90.4708 11.6016H104.619V24.8064H90.4708V11.6016Z" fill="#9191A4"/>
<path d="M130.322 47.1978H144.47V60.4026H130.322V47.1978Z" fill="#9191A4"/>
<path d="M216.092 12.5068L216.412 12.5225C221.658 13.0811 225.6 14.2766 229.348 16.8894C229.795 17.2022 230.133 17.6477 230.314 18.1632C235.201 32.0365 236.496 44.2315 234.094 50.2168C231.481 55.4503 227.306 59.4909 222.648 59.4909C220.741 59.4909 218.238 56.9642 216.584 54.153C218.43 53.8162 220.259 53.3867 222.062 52.8661C222.391 52.7719 222.699 52.6136 222.967 52.4003C223.235 52.187 223.458 51.9229 223.624 51.6231C223.79 51.3233 223.896 50.9936 223.935 50.6529C223.974 50.3121 223.946 49.967 223.852 49.6373C223.758 49.3075 223.6 48.9996 223.387 48.731C223.174 48.4624 222.91 48.2385 222.611 48.072C222.312 47.9054 221.983 47.7996 221.643 47.7605C221.303 47.7214 220.959 47.7498 220.629 47.8441C211.981 50.3238 204.662 50.3238 196.013 47.8441C195.349 47.6537 194.636 47.7357 194.032 48.072C193.427 48.4083 192.981 48.9713 192.791 49.6373C192.601 50.3033 192.683 51.0176 193.018 51.6231C193.354 52.2286 193.916 52.6758 194.581 52.8661C196.448 53.3986 198.269 53.8319 200.059 54.1556C198.405 56.9616 195.901 59.4909 193.995 59.4909C189.337 59.4909 185.161 55.4503 182.46 50.0184C180.147 44.2315 181.444 32.0339 186.328 18.1632C186.509 17.6477 186.847 17.2022 187.295 16.8894C191.043 14.2766 194.984 13.0811 200.231 12.5225C200.701 12.4722 201.177 12.5513 201.606 12.7514C202.035 12.9514 202.401 13.2648 202.666 13.6579L202.83 13.9372L204.526 17.2914L204.883 17.2496C207.172 17.0147 209.479 17.0147 211.768 17.2496L212.117 17.2914L213.81 13.9398C213.999 13.5634 214.277 13.2386 214.619 12.9931C214.961 12.7477 215.357 12.5889 215.774 12.5303L216.092 12.5068ZM200.507 30.7784C199.262 30.7784 198.058 31.2251 197.113 32.0376C196.169 32.8502 195.545 33.9748 195.357 35.208L195.31 35.6099L195.297 35.9989L195.31 36.3904C195.386 37.4033 195.755 38.372 196.373 39.1777C196.99 39.9834 197.828 40.5912 198.785 40.9266C199.742 41.2619 200.776 41.3103 201.759 41.0658C202.743 40.8212 203.635 40.2943 204.324 39.5498C205.014 38.8052 205.471 37.8752 205.641 36.8738C205.811 35.8724 205.686 34.8431 205.281 33.9121C204.875 32.981 204.208 32.1886 203.36 31.632C202.512 31.0754 201.52 30.7787 200.507 30.7784ZM216.136 30.7784C214.891 30.7784 213.687 31.2251 212.743 32.0376C211.798 32.8502 211.175 33.9748 210.986 35.208L210.939 35.6099L210.926 35.9989L210.939 36.3904C211.015 37.4033 211.385 38.372 212.002 39.1777C212.619 39.9834 213.457 40.5912 214.414 40.9266C215.371 41.2619 216.405 41.3103 217.389 41.0658C218.373 40.8212 219.264 40.2943 219.953 39.5498C220.643 38.8052 221.101 37.8752 221.27 36.8738C221.44 35.8724 221.315 34.8431 220.91 33.9121C220.505 32.981 219.837 32.1886 218.989 31.632C218.141 31.0754 217.15 30.7787 216.136 30.7784Z" fill="#9191A4"/>
<path d="M40.8829 32.2078L59.2757 11.2456H54.9188L38.9416 29.4431L26.1901 11.2456H11.4791L30.7661 38.766L11.4791 60.7454H15.8361L32.6975 41.5242L46.167 60.7454H60.8779M17.4086 14.467H24.1022L54.9155 57.6823H48.2203" fill="#9191A4"/>
<path d="M74.2357 33.0921L70.1099 33.092C66.8547 33.0921 64.2158 35.7363 64.2158 38.9982C64.2158 42.26 66.8547 44.9043 70.1099 44.9043L74.2357 44.9043C74.5612 44.9043 74.8251 44.6399 74.8251 44.3137L74.8251 43.1325C74.8251 42.8063 74.5612 42.5418 74.2357 42.5418L70.1099 42.5418C68.1568 42.5418 66.5735 40.9553 66.5735 38.9982C66.5735 37.0411 68.1568 35.4545 70.1099 35.4545L74.2357 35.4545C74.5612 35.4545 74.8251 35.1901 74.8251 34.8639L74.8251 33.6827C74.8251 33.3565 74.5612 33.092 74.2357 33.0921Z" fill="#9191A4"/>
<path d="M78.9509 44.9043C78.6254 44.9043 78.3615 44.6399 78.3615 44.3137L78.3615 43.1325C78.3615 42.8063 78.6254 42.5418 78.9509 42.5418L83.0768 42.5418C85.0299 42.5418 86.6132 40.9553 86.6132 38.9982C86.6132 37.0411 85.0299 35.4545 83.0768 35.4545L78.9509 35.4545C78.6254 35.4545 78.3615 35.1901 78.3615 34.8639L78.3615 33.6827C78.3615 33.3565 78.6254 33.0921 78.9509 33.0921L83.0768 33.0921C86.332 33.0921 88.9708 35.7363 88.9708 38.9982C88.9708 42.26 86.332 44.9043 83.0768 44.9043L78.9509 44.9043Z" fill="#9191A4"/>
<path d="M72.4675 37.8169C72.142 37.8169 71.8781 38.0814 71.8781 38.4076L71.8781 39.5888C71.8781 39.915 72.142 40.1794 72.4675 40.1794L80.7192 40.1794C81.0447 40.1794 81.3086 39.915 81.3086 39.5888L81.3086 38.4076C81.3086 38.0814 81.0447 37.8169 80.7192 37.8169H72.4675Z" fill="#9191A4"/>
<path d="M160.06 33.0921L155.934 33.092C152.679 33.0921 150.04 35.7363 150.04 38.9982C150.04 42.26 152.679 44.9043 155.934 44.9043L160.06 44.9043C160.385 44.9043 160.649 44.6399 160.649 44.3137L160.649 43.1325C160.649 42.8063 160.385 42.5418 160.06 42.5418L155.934 42.5418C153.981 42.5418 152.398 40.9553 152.398 38.9982C152.398 37.0411 153.981 35.4545 155.934 35.4545L160.06 35.4545C160.385 35.4545 160.649 35.1901 160.649 34.8639L160.649 33.6827C160.649 33.3565 160.385 33.092 160.06 33.0921Z" fill="#9191A4"/>
<path d="M164.775 44.9043C164.45 44.9043 164.186 44.6399 164.186 44.3137L164.186 43.1325C164.186 42.8063 164.45 42.5418 164.775 42.5418L168.901 42.5418C170.854 42.5418 172.437 40.9553 172.437 38.9982C172.437 37.0411 170.854 35.4545 168.901 35.4545L164.775 35.4545C164.45 35.4545 164.186 35.1901 164.186 34.8639L164.186 33.6827C164.186 33.3565 164.45 33.0921 164.775 33.0921L168.901 33.0921C172.156 33.0921 174.795 35.7363 174.795 38.9982C174.795 42.26 172.156 44.9043 168.901 44.9043L164.775 44.9043Z" fill="#9191A4"/>
<path d="M158.292 37.8169C157.966 37.8169 157.702 38.0814 157.702 38.4076L157.702 39.5888C157.702 39.915 157.966 40.1794 158.292 40.1794L166.543 40.1794C166.869 40.1794 167.133 39.915 167.133 39.5888L167.133 38.4076C167.133 38.0814 166.869 37.8169 166.543 37.8169H158.292Z" fill="#9191A4"/>
</svg>
